<svg width="256" height="256" viewBox="0 0 256 256" fill="none" xmlns="http://www.w3.org/2000/svg">
<path d="M232 174.009V81.9906C231.996 77.9564 230.931 73.9942 228.913 70.5016C226.894 67.0089 223.993 64.1086 220.5 62.0915L140 16.082C136.504 14.063 132.537 13 128.5 13C124.463 13 120.496 14.063 117 16.082L36.5 62.0915C33.007 64.1086 30.1058 67.0089 28.0873 70.5016C26.0688 73.9942 25.0041 77.9564 25 81.9906V174.009C25.0041 178.044 26.0688 182.006 28.0873 185.498C30.1058 188.991 33.007 191.891 36.5 193.909L117 239.918C120.496 241.937 124.463 243 128.5 243C132.537 243 136.504 241.937 140 239.918L220.5 193.909C223.993 191.891 226.894 188.991 228.913 185.498C230.931 182.006 231.996 178.044 232 174.009Z" stroke="white" stroke-width="15" stroke-linecap="round" stroke-linejoin="round"/>
<path d="M189 101.195C188.998 98.8442 188.375 96.5358 187.195 94.5009C186.015 92.4661 184.32 90.7763 182.278 89.6011L135.222 62.7956C133.178 61.6193 130.86 61 128.5 61C126.14 61 123.822 61.6193 121.778 62.7956L74.7222 89.6011C72.6804 90.7763 70.9845 92.4661 69.8047 94.5009C68.6248 96.5358 68.0024 98.8442 68 101.195V154.805C68.0024 157.156 68.6248 159.464 69.8047 161.499C70.9845 163.534 72.6804 165.224 74.7222 166.399L121.778 193.204C123.822 194.381 126.14 195 128.5 195C130.86 195 133.178 194.381 135.222 193.204L182.278 166.399C184.32 165.224 186.015 163.534 187.195 161.499C188.375 159.464 188.998 157.156 189 154.805V132.036H128.5" stroke="white" stroke-width="20" stroke-linecap="round" stroke-linejoin="round"/>
</svg>
